<svg xmlns="http://www.w3.org/2000/svg" width="27.709" height="23.028" viewBox="0 0 27.709 23.028">
  <g id="Group_372" data-name="Group 372" transform="translate(-63 -11.972)">
    <path id="Icon_awesome-image" data-name="Icon awesome-image" d="M18.794,20.053H1.944A1.944,1.944,0,0,1,0,18.109V6.444A1.944,1.944,0,0,1,1.944,4.5H18.794a1.944,1.944,0,0,1,1.944,1.944V18.109A1.944,1.944,0,0,1,18.794,20.053ZM4.536,6.768A2.268,2.268,0,1,0,6.8,9.036,2.268,2.268,0,0,0,4.536,6.768ZM2.592,17.461H18.146V12.925L14.6,9.38a.486.486,0,0,0-.687,0L8.425,14.869,6.176,12.62a.486.486,0,0,0-.687,0l-2.9,2.9Z" transform="translate(69.971 14.947)" fill="#fff"/>
    <path id="Path_7" data-name="Path 7" d="M6.267,14.678V11.25H4.553v3.428H1.125v1.714H4.553V19.82H6.267V16.392H9.695V14.678Z" transform="translate(61.875 0.722)" fill="#fff"/>
  </g>
</svg>
