<svg xmlns="http://www.w3.org/2000/svg" width="60" height="65.775" viewBox="0 0 60 65.775">
  <g id="Artwork_3" data-name="Artwork 3" transform="translate(30 32.888)">
    <g id="Group_182" data-name="Group 182" transform="translate(-30 -32.888)">
      <path id="Path_4961" data-name="Path 4961" d="M340.222,259.524a10.173,10.173,0,0,0-.378-4.2,2.7,2.7,0,0,1-.088-1.591,3.253,3.253,0,0,1,.865-1.171,4.154,4.154,0,0,1,.8-.515,5.249,5.249,0,0,1,.427,1.006c.178.9.22,1.822.453,2.7a15.913,15.913,0,0,1,.232,4.329c-.01.966-.18,1.93-.278,2.894-.148.65-.275,1.306-.447,1.95a23.459,23.459,0,0,1-2.8,6.49,27.064,27.064,0,0,1-4.189,5l-.539.5c-.616.424-1.218.872-1.853,1.265-.556.344-1.156.617-1.725.94a1.5,1.5,0,0,0-.31.339l-.725.317c-.29.089-.587.163-.87.271-.834.321-1.656.671-2.5.976-.317.115-.68.1-1,.214a11.546,11.546,0,0,1-3.456.654l-.224-.572.413-1.749c.427-.055.858-.088,1.281-.167a22.367,22.367,0,0,0,5.59-1.884l2.284-1.343.476-.337a1.625,1.625,0,0,0,.251-.132,15.366,15.366,0,0,0,3.631-3.552c.64-.96,1.433-1.824,2.023-2.811a20.926,20.926,0,0,0,2.72-8.977A4.967,4.967,0,0,0,340.222,259.524Z" transform="translate(-290.897 -227.972)" fill="#f6f5f4"/>
      <path id="Path_4962" data-name="Path 4962" d="M425.951,543.727c.065-.165.082-.4.2-.483a3.725,3.725,0,0,1,1.854-.87l-.162,2.374-1.9-1.027Z" transform="translate(-385.26 -490.568)" fill="#f6f5f4"/>
      <path id="Path_4963" data-name="Path 4963" d="M85.58,272.561a25.48,25.48,0,0,1-5.164-2.525,16.048,16.048,0,0,1-1.795-1.419l-1.463-1.4c-.948-1.17-1.943-2.305-2.827-3.522-.624-.858-1.1-1.826-1.636-2.746-.508-1.466-.969-2.951-1.538-4.393a16.5,16.5,0,0,1-.666-4.611c-.033-.331-.129-.657-.195-.985-.018-.088-.071-.192-.044-.264.455-1.181.205-2.433.377-3.635a21.521,21.521,0,0,1,.768-2.838c.111-.388.246-.769.381-1.183a3.15,3.15,0,0,1,1.555,1.287,1.688,1.688,0,0,1,.083,1.085c-.072.592-.224,1.175-.341,1.762l-.152.209c-.072,1.1-.233,2.2-.2,3.294a18.22,18.22,0,0,0,.612,5.108c.086.265.167.532.251.8a6.684,6.684,0,0,0,.166.74,20.9,20.9,0,0,0,5.817,8.982,20.178,20.178,0,0,0,6.58,3.986l.693,2.3-.58.238Z" transform="translate(-63.535 -219.831)" fill="#f6f5f4"/>
      <path id="Path_4964" data-name="Path 4964" d="M424.9,158.572a6.522,6.522,0,0,1,2.175-1.046c1.995-.548,3.955-1.221,5.929-1.844l1.952-.615,5.925-1.673,2.882-.769c-.1.236-.114.425-.218.517-.816.725-1.649,1.431-2.477,2.143l-3.85,3.178c-1.371,1.113-2.75,2.216-4.111,3.341-.921.761-1.817,1.552-2.725,2.33a6.417,6.417,0,0,1-1.534.688,4.116,4.116,0,0,1-3.945-6.251Z" transform="translate(-383.757 -138.047)" fill="#f6f5f4"/>
      <path id="Path_4965" data-name="Path 4965" d="M342.333,275.419l1.414-1.032a3.161,3.161,0,0,1,.465,1.815c.138,1.174.178,2.359.259,3.54q-.123.929-.246,1.857c-.1.775-.142,1.566-.321,2.323a20.08,20.08,0,0,1-4.967,9.158c-.838.9-1.834,1.652-2.758,2.471l-1.166.771-1.709.9c-2.033.846-4.03,1.828-6.362,1.784l.373-2.559a18.289,18.289,0,0,0,4.3-1.241,6.257,6.257,0,0,0,.78-.334c.762-.452,1.519-.915,2.257-1.4.122-.081.139-.318.2-.483l-.156-.106-3.087,1.787a15.2,15.2,0,0,1-3.985,1.065l-.415-2.306,1.908-.526a13.887,13.887,0,0,0,8.73-7.895,9.37,9.37,0,0,0,1.02-3.922,14.24,14.24,0,0,0-.163-5.278l2.406.273a2.929,2.929,0,0,1,.137.447,17.725,17.725,0,0,1-.04,5.266,16.009,16.009,0,0,1-2.075,5.951c-.491.811-1.033,1.59-1.551,2.384a1.469,1.469,0,0,0-.723,1.038c.624.05.8-.361,1.019-.7a13.46,13.46,0,0,0,2.691-4.306,16.323,16.323,0,0,0,1.226-4.65,13.8,13.8,0,0,0-.03-4.663A1.116,1.116,0,0,1,342.333,275.419Zm-6.505,17.131c.152-.229.076-.322-.182-.305l-.222.032-.356.274-.284.382.362.152.34-.263Zm.668-.609-.157-.279a3.082,3.082,0,0,0-.363.231.521.521,0,0,0,.115.211A2.639,2.639,0,0,0,336.5,291.941Z" transform="translate(-295.711 -248.178)" fill="#f6f5f4"/>
      <path id="Path_4966" data-name="Path 4966" d="M514.447,420.345l-5.653-.284a26.448,26.448,0,0,0,3.444-6.536l.838,1.25q.942,1.836,1.883,3.672c.295.577.583,1.157.914,1.816Z" transform="translate(-460.195 -374.026)" fill="#f6f5f4"/>
      <path id="Path_4967" data-name="Path 4967" d="M560.612,323.677l1.937.582-1.937,1.767Z" transform="translate(-507.063 -292.76)" fill="#f6f5f4"/>
      <path id="Path_4968" data-name="Path 4968" d="M182.151,124.29l-.9,1.114c-.273-.233-.543-.474-.825-.7-.232-.186-.437-.506-.8-.22l-.162-.132.233-.229-.808-.55a.186.186,0,0,0-.095-.092l-.276-.231-.319-.192-.246-.183-.942-.485a3.261,3.261,0,0,0-.319-.2,13.685,13.685,0,0,0-15.011,2.358l-.928.752-1.19-1.985,1.022-1.115,2.83-1.966c.489-.214.99-.4,1.464-.648s1.1-.187,1.488-.986a10.222,10.222,0,0,0-3.179,1.245l-2.888,1.865-1.373,1.15-1.184-.364-1.144-.6c.429-.459.769-.867,1.155-1.224.552-.511,1.138-.985,1.709-1.475l2.43-1.607c.347-.15.7-.287,1.041-.452a18.706,18.706,0,0,1,11.491-1.479c.4.067.808.132,1.212.2.469.17.934.351,1.407.508a17.43,17.43,0,0,1,6.071,3.439c.689.605,1.352,1.241,2.009,1.882a9.541,9.541,0,0,1,.693.862c-.8.264-1.473.479-2.141.714-.376.132-.584-.149-.849-.3l-.014-.021c-.147-.191-.268-.442-.648-.233C182.373,123.224,182.794,123.784,182.151,124.29Zm-1-2.274c.321.3.576.7,1.143.8.008-.746-.568-.909-.93-1.235a3.048,3.048,0,0,0-.333-.324,16.89,16.89,0,0,0-7.737-3.163,19.2,19.2,0,0,0-5.27.052,1.246,1.246,0,0,0-1.088.611c.541-.049.9-.055,1.247-.117a15.776,15.776,0,0,1,8.242.751A20.514,20.514,0,0,1,181.154,122.015Zm-14.142-3.421c-.347-.211-.564-.131-.687.241C166.676,119.05,166.89,118.962,167.012,118.595Z" transform="translate(-141.644 -104.331)" fill="#f6f5f4"/>
      <path id="Path_4969" data-name="Path 4969" d="M139,84.062c1.5-.108,3-.264,4.5-.305a17.964,17.964,0,0,1,2.313.249,3.561,3.561,0,0,0,.563-.028,21.171,21.171,0,0,1,8.422,3.091,23.21,23.21,0,0,1,5.973,5.4,2.9,2.9,0,0,1,.26.4c.026.046,0,.119,0,.243-.486.143-.994.3-1.505.441-.681.191-1.111-.211-1.519-.659a23.931,23.931,0,0,0-5.092-4.2,15.09,15.09,0,0,0-5.015-1.981c-1.269-.2-2.532-.486-3.809-.565a19.778,19.778,0,0,0-3.5.157,17.093,17.093,0,0,0-6.7,2.2l-2.249,1.411a6.11,6.11,0,0,0-.777.514c-.957.86-1.9,1.739-2.886,2.653l-2.052-.873.463-.7,3.38-3.219.789-.576a24.7,24.7,0,0,1,5.379-2.727C136.954,84.651,137.983,84.369,139,84.062Z" transform="translate(-113.902 -75.755)" fill="#f6f5f4"/>
      <path id="Path_4970" data-name="Path 4970" d="M278.176,6.375a19.275,19.275,0,0,0-5.574-.089c-.211.022-.424.021-.741.035l1.731-3.01c.257-.424.5-.854.772-1.27.424-.656.863-1.3,1.353-2.04A11.993,11.993,0,0,1,277.6,3.09c.593,1.04,1.121,2.117,1.734,3.284Z" transform="translate(-245.894)" fill="#f6f5f4"/>
      <path id="Path_4971" data-name="Path 4971" d="M435.055,83.775l-.274,2.9-2.611-1.712,2.692-1.358Z" transform="translate(-390.89 -75.619)" fill="#f6f5f4"/>
      <path id="Path_4972" data-name="Path 4972" d="M3.812,140.616l-1.489-1.44-.133-.145L.471,137.309c-.108-.314-.655-.439-.408-.932l1.544.441c.956.393,1.906.8,2.869,1.176,1.431.555,2.872,1.086,4.309,1.627l7.2,2.809a3.273,3.273,0,0,1,2.182,2.832,4.7,4.7,0,0,1-.826,3.3,15.7,15.7,0,0,1-1.384.969,2.707,2.707,0,0,1-3.522-.472c-.249-.237-.512-.458-.769-.687-1.517-1.467-3.043-2.925-4.546-4.406-.581-.573-1.1-1.212-1.669-1.794C4.927,141.633,4.361,141.133,3.812,140.616Z" transform="translate(0 -123.35)" fill="#f6f5f4"/>
      <path id="Path_4973" data-name="Path 4973" d="M103.851,277.378a30.134,30.134,0,0,1-.648-2.959,27.935,27.935,0,0,1-.134-3.324,17.867,17.867,0,0,1,.682-4.76,1.993,1.993,0,0,1,.153-.3l.588.43.381.383c.032.054.051.126.1.159.685.486,1.187,1.032.672,1.934a22.759,22.759,0,0,0,.209,5.973,11.2,11.2,0,0,0,1.279,3.858l.954,1.911a11.414,11.414,0,0,0,2.28,3.056,17.712,17.712,0,0,0,4.925,3.711l.406,2.813c-.664-.29-1.2-.5-1.726-.756a24.732,24.732,0,0,1-4.454-3.037c-.678-.749-1.385-1.474-2.029-2.252A21.527,21.527,0,0,1,103.851,277.378Z" transform="translate(-93.224 -240.619)" fill="#f6f5f4"/>
      <path id="Path_4974" data-name="Path 4974" d="M30.413,413.236l1.3,2.2-1.25.1h-6.28l4.023-6.9c.263.632.435,1.116.66,1.574C29.371,411.225,29.9,412.228,30.413,413.236Z" transform="translate(-21.878 -369.604)" fill="#f6f5f4"/>
      <path id="Path_4975" data-name="Path 4975" d="M19.871,311.116c.563-.676.976-.888,3.192-1.669v3.986Z" transform="translate(-17.973 -279.889)" fill="#f6f5f4"/>
      <path id="Path_4976" data-name="Path 4976" d="M155.993,539.482l.5-1.8,2.575,1.613a5.679,5.679,0,0,1-3.076.746Q155.994,539.762,155.993,539.482Z" transform="translate(-141.093 -486.324)" fill="#f6f5f4"/>
      <path id="Path_4977" data-name="Path 4977" d="M248.992,466.851l-.332,2.457c-.332.009-.285.251-.311.473-.144,1.253-.227,2.52-.491,3.748a8.59,8.59,0,0,0-.254,1.515,7.114,7.114,0,0,1-.336,1.233,5,5,0,0,0-.055.753,2.5,2.5,0,0,1-.3,1.543c-.1.126-.069.358-.088.543q-.139,1.393-.273,2.786l-.237.046a3.556,3.556,0,0,1-.271-.6c-.517-2.106-1.021-4.215-1.533-6.322-.044-.183-.123-.357-.186-.535l-.807-3.246-.33-1.159-.249-1.511-.343-1.157c-.24-1.1-.482-2.2-.718-3.3a2.035,2.035,0,0,1,.227-1.466,4.557,4.557,0,0,1,3.753-2.525l1.684.348c2.038,1.323,2.237,1.649,1.76,4.442C249.192,465.558,249.1,466.2,248.992,466.851Z" transform="translate(-218.73 -416.174)" fill="#f6f5f4"/>
      <path id="Path_4978" data-name="Path 4978" d="M194.248,222.5c-.934-.276-1.886-.5-2.8-.839a10.458,10.458,0,0,1-5.035-3.879,2.733,2.733,0,0,0-.405-.382,15.58,15.58,0,0,1-2.036-5.384q-.035-1.419-.07-2.838l1.023-3.594a2.453,2.453,0,0,1,.214-.7c.424-.622.886-1.218,1.346-1.815.344-.447.708-.878,1.063-1.316a3.3,3.3,0,0,0,.386-.257,11.812,11.812,0,0,1,3.806-2.292,12.811,12.811,0,0,1,4.776-.706,11.168,11.168,0,0,1,6.145,2.468c1.016.881,1.873,1.945,2.8,2.927.333.67.72,1.32.985,2.016.312.819.519,1.679.771,2.521.016.284.025.568.048.851a11.957,11.957,0,0,1-4.591,10.8,11.731,11.731,0,0,1-5.231,2.354Zm-5.781-18.284a9.142,9.142,0,0,0-2.227,5.549,9.631,9.631,0,0,0,6.245,9.91,5.081,5.081,0,0,0,2.689.422,15.436,15.436,0,0,0,1.615-.019,9.745,9.745,0,0,0,4.92-17.028,8.844,8.844,0,0,0-6.489-2.234A9.194,9.194,0,0,0,188.467,204.211Z" transform="translate(-166.338 -179.525)" fill="#f6f5f4"/>
      <path id="Path_4979" data-name="Path 4979" d="M218.021,180.432a.185.185,0,0,1,.1.092c-.018.122-.094.309-.043.355a4.745,4.745,0,0,0,.618.424l.162.132a7.381,7.381,0,0,1,1.471,1.682,7.3,7.3,0,0,1,.263,2.217.825.825,0,0,1-.04.166l-.315-.106a3.459,3.459,0,0,0-.253-.506,11.934,11.934,0,0,0-7.436-4.828,13.822,13.822,0,0,0-1.5-.161,9.612,9.612,0,0,0-1.133-.089,11.657,11.657,0,0,0-4.846,1.155,9.373,9.373,0,0,0-3.2,2.3l-1.9,2.009a3.66,3.66,0,0,0,.049-.77,2.516,2.516,0,0,1,.941-2.491c.335-.283.66-.58,1.007-.847a12.935,12.935,0,0,1,10.626-2.608,28.789,28.789,0,0,1,3.6,1.146l.87.5a4.28,4.28,0,0,0,.612.382c.085.036.231-.07.349-.111Z" transform="translate(-180.867 -161.283)" fill="#f6f5f4"/>
      <path id="Path_4980" data-name="Path 4980" d="M323.519,281.45c-.334,1.149-.576,2.334-1.018,3.44a13.416,13.416,0,0,1-7.774,7.709c-.262.106-.518.228-.777.343a9.787,9.787,0,0,0-1.269.273,1.128,1.128,0,0,1-1.35-.273,4.568,4.568,0,0,0-.929-.6l-.041-.285,1.48-.288a7.721,7.721,0,0,0,3.691-1.128,12.231,12.231,0,0,0,6.623-10.261,17.444,17.444,0,0,0-.207-2.921,5.928,5.928,0,0,0-.726-2.508c.051-.054.118-.14.128-.134.477.29.947.59,1.421.885.582.364.508.948.55,1.517.063.844.226,1.68.278,2.524A14.847,14.847,0,0,1,323.519,281.45Z" transform="translate(-280.717 -248.568)" fill="#f6f5f4"/>
      <path id="Path_4981" data-name="Path 4981" d="M163.2,80.892V79.643l2.58,1.1a6.266,6.266,0,0,1-2.295,1.435Z" transform="translate(-147.608 -72.036)" fill="#f6f5f4"/>
      <path id="Path_4982" data-name="Path 4982" d="M136.737,300.311l-1.063-2.211c-.31-1.162-.7-2.311-.913-3.49a16.259,16.259,0,0,1,.1-6.356h2.363l-.105,1.554a14.836,14.836,0,0,0,2.833,10.752,18.661,18.661,0,0,0,1.443,1.706,14.026,14.026,0,0,0,3.661,2.5,2.908,2.908,0,0,1,.315.2l-1.432,1.959a13.375,13.375,0,0,1-2.851-1.759c-.7-.587-1.366-1.209-2.047-1.816Z" transform="translate(-121.65 -260.721)" fill="#f6f5f4"/>
      <path id="Path_4983" data-name="Path 4983" d="M166.916,272.182l.271,0c-.132.51-.29,1.016-.389,1.532-.134.7-.222,1.4-.33,2.1a6.2,6.2,0,0,0,.028,2.9,10.58,10.58,0,0,0,2.117,5.736,12.4,12.4,0,0,0,6.7,4.784,3.3,3.3,0,0,0-.7.262,1.963,1.963,0,0,1-2.489-.049,13.785,13.785,0,0,1-3.864-3.159c-.156-.2-.343-.368-.516-.552a18.891,18.891,0,0,1-2.381-4.745c-.062-.34-.11-.684-.19-1.02a18,18,0,0,1-.226-4.719.714.714,0,0,0,.062-.178,2.64,2.64,0,0,1,1.545-2.479C166.7,272.529,166.795,272.324,166.916,272.182Z" transform="translate(-149.145 -246.181)" fill="#f6f5f4"/>
      <path id="Path_4984" data-name="Path 4984" d="M221.257,246.152a9.5,9.5,0,0,1-4.815-1.837,9.252,9.252,0,0,1-3.667-6.985,9.1,9.1,0,0,1,1.827-5.952,6.847,6.847,0,0,0,.4-.738c.646-.51,1.257-1.074,1.943-1.522a8.694,8.694,0,0,1,10.439.64,9.3,9.3,0,0,1,2.036,11.9A8.777,8.777,0,0,1,221.257,246.152Zm-5.88-6.175c.249.394.485.8.748,1.179a5.927,5.927,0,0,0,2.469,2.136,8.589,8.589,0,0,0,1.032.442,6.742,6.742,0,0,0,6.242-1.022,6.975,6.975,0,0,0,2.831-6.7,6.7,6.7,0,0,0-4.641-5.895,6.775,6.775,0,0,0-8.214,2.912,10.5,10.5,0,0,0-.523.987A7.758,7.758,0,0,0,215.377,239.977Z" transform="translate(-192.438 -205.925)" fill="#f6f5f4"/>
      <path id="Path_4985" data-name="Path 4985" d="M241.8,266.854c-.29-.24-.584-.474-.868-.72a6.134,6.134,0,0,1-1.825-2.359,1.821,1.821,0,0,0-.335-.42,4.292,4.292,0,0,0-.077-.56,6.449,6.449,0,0,1,.531-5.006,2.552,2.552,0,0,0,.151-.445,6.67,6.67,0,0,1,5.075-3.129,6.58,6.58,0,0,1,6.534,4.125,6.767,6.767,0,0,1-1.9,7.693,6.127,6.127,0,0,1-6.577,1.066C242.28,267.008,242.038,266.936,241.8,266.854Zm-1.511-6.108a4.688,4.688,0,1,0,9.367.129,4.847,4.847,0,0,0-4.388-4.771A4.744,4.744,0,0,0,240.29,260.746Z" transform="translate(-215.65 -229.912)" fill="#f6f5f4"/>
      <path id="Path_4986" data-name="Path 4986" d="M263.194,283.6a4.136,4.136,0,0,1,4.173-4.288,4.191,4.191,0,0,1,4.171,4.3,4.315,4.315,0,0,1-4.2,4.294A4.215,4.215,0,0,1,263.194,283.6Z" transform="translate(-238.051 -252.63)" fill="#f6f5f4"/>
    </g>
  </g>
</svg>
